<svg xmlns="http://www.w3.org/2000/svg" xmlns:xlink="http://www.w3.org/1999/xlink" width="60" height="60" viewBox="0 0 60 60"><defs><path id="k4yra" d="M545.17 1809.436a.761.761 0 0 0-.09.18.644.644 0 0 0-.06.18 1.537 1.537 0 0 0-.02.2c.004.265.108.518.29.71.096.09.208.162.33.21.373.15.8.068 1.09-.21.09-.096.162-.208.21-.33a.997.997 0 0 0-1.63-1.09z"/><path id="k4yrb" d="M591 1777a1 1 0 0 1-1 1h-1v-7h1a1 1 0 0 1 1 1zm-47 .476V1754a1 1 0 0 1 1-1h36a1 1 0 0 1 1 1v23.476c-4.639-1.56-11.557-2.476-19-2.476s-14.361.915-19 2.476zm-5-7.476a1 1 0 0 1 1-1h2v9h-3zm-4 7v-5a1 1 0 0 1 1-1h1v7h-1a1 1 0 0 1-1-1zm51-8a1 1 0 0 1 1 1v8h-3v-9zm4 0h-1.184a3 3 0 0 0-2.816-2h-2v-13a3 3 0 0 0-3-3h-36a3 3 0 0 0-3 3v13h-2a3 3 0 0 0-2.816 2H536a3 3 0 0 0-3 3v5a3 3 0 0 0 3 3v29a2 2 0 0 0 2 2h4a1 1 0 0 0 0-2h-4v-29h5a1 1 0 0 0 .7-.29c4.376-1.7 11.516-2.71 19.3-2.71 7.784 0 14.924 1.01 19.3 2.71a1 1 0 0 0 .7.29h5v29h-38a1 1 0 0 0 0 2h38a2 2 0 0 0 2-2v-29a3 3 0 0 0 3-3v-5a3 3 0 0 0-3-3z"/><path id="k4yrc" d="M543 1795a1 1 0 1 1 0-2 1 1 0 0 1 0 2zm0-4a3 3 0 1 0 0 6 3 3 0 0 0 0-6z"/><path id="k4yrd" d="M551 1793a1 1 0 1 1 0 2 1 1 0 0 1 0-2zm0 4a3 3 0 1 0 0-6 3 3 0 0 0 0 6z"/><path id="k4yre" d="M559 1793a1 1 0 1 1 0 2 1 1 0 0 1 0-2zm0 4a3 3 0 1 0 0-6 3 3 0 0 0 0 6z"/><path id="k4yrf" d="M567 1793a1 1 0 1 1 0 2 1 1 0 0 1 0-2zm0 4a3 3 0 1 0 0-6 3 3 0 0 0 0 6z"/><path id="k4yrg" d="M575 1793a1 1 0 1 1 0 2 1 1 0 0 1 0-2zm0 4a3 3 0 1 0 0-6 3 3 0 0 0 0 6z"/><path id="k4yrh" d="M582 1794a1 1 0 1 1 2 0 1 1 0 0 1-2 0zm4 0a3 3 0 1 0-6 0 3 3 0 0 0 6 0z"/><path id="k4yri" d="M551 1785a1 1 0 1 1 0 2 1 1 0 0 1 0-2zm0 4a3 3 0 1 0 0-6 3 3 0 0 0 0 6z"/><path id="k4yrj" d="M559 1785a1 1 0 1 1 0 2 1 1 0 0 1 0-2zm0 4a3 3 0 1 0 0-6 3 3 0 0 0 0 6z"/><path id="k4yrk" d="M567 1785a1 1 0 1 1 0 2 1 1 0 0 1 0-2zm0 4a3 3 0 1 0 0-6 3 3 0 0 0 0 6z"/><path id="k4yrl" d="M575 1785a1 1 0 1 1 0 2 1 1 0 0 1 0-2zm0 4a3 3 0 1 0 0-6 3 3 0 0 0 0 6z"/><path id="k4yrm" d="M551 1801a1 1 0 1 1 0 2 1 1 0 0 1 0-2zm0 4a3 3 0 1 0 0-6 3 3 0 0 0 0 6z"/><path id="k4yrn" d="M559 1801a1 1 0 1 1 0 2 1 1 0 0 1 0-2zm0 4a3 3 0 1 0 0-6 3 3 0 0 0 0 6z"/><path id="k4yro" d="M567 1801a1 1 0 1 1 0 2 1 1 0 0 1 0-2zm0 4a3 3 0 1 0 0-6 3 3 0 0 0 0 6z"/><path id="k4yrp" d="M575 1801a1 1 0 1 1 0 2 1 1 0 0 1 0-2zm0 4a3 3 0 1 0 0-6 3 3 0 0 0 0 6z"/><path id="k4yrq" d="M550 1760h26a1 1 0 0 0 0-2h-26a1 1 0 0 0 0 2z"/><path id="k4yrr" d="M579 1763h-32a1 1 0 0 0 0 2h32a1 1 0 0 0 0-2z"/><path id="k4yrs" d="M579 1767h-32a1 1 0 0 0 0 2h32a1 1 0 0 0 0-2z"/><path id="k4yrt" d="M579 1771h-32a1 1 0 0 0 0 2h32a1 1 0 0 0 0-2z"/></defs><g><g transform="translate(-533 -1751)"><g><use fill="#38a89d" xlink:href="#k4yra"/></g><g><use fill="#38a89d" xlink:href="#k4yrb"/></g><g><use fill="#38a89d" xlink:href="#k4yrc"/></g><g><use fill="#38a89d" xlink:href="#k4yrd"/></g><g><use fill="#38a89d" xlink:href="#k4yre"/></g><g><use fill="#38a89d" xlink:href="#k4yrf"/></g><g><use fill="#38a89d" xlink:href="#k4yrg"/></g><g><use fill="#38a89d" xlink:href="#k4yrh"/></g><g><use fill="#38a89d" xlink:href="#k4yri"/></g><g><use fill="#38a89d" xlink:href="#k4yrj"/></g><g><use fill="#38a89d" xlink:href="#k4yrk"/></g><g><use fill="#38a89d" xlink:href="#k4yrl"/></g><g><use fill="#38a89d" xlink:href="#k4yrm"/></g><g><use fill="#38a89d" xlink:href="#k4yrn"/></g><g><use fill="#38a89d" xlink:href="#k4yro"/></g><g><use fill="#38a89d" xlink:href="#k4yrp"/></g><g><use fill="#38a89d" xlink:href="#k4yrq"/></g><g><use fill="#38a89d" xlink:href="#k4yrr"/></g><g><use fill="#38a89d" xlink:href="#k4yrs"/></g><g><use fill="#38a89d" xlink:href="#k4yrt"/></g></g></g></svg>