<svg xmlns="http://www.w3.org/2000/svg" xmlns:xlink="http://www.w3.org/1999/xlink" width="60" height="60" viewBox="0 0 60 60"><defs><path id="gp6oa" d="M272.947 1755.48c.076.106.172.197.283.267.216.133.47.194.722.175a.8.8 0 0 0 .576-.284c.13-.178.185-.4.154-.617l-.042-.177a.797.797 0 0 0-.077-.182.716.716 0 0 0-.093-.165 1.974 1.974 0 0 0-.13-.155.986.986 0 0 0-.693-.292.933.933 0 0 0-.875 1.077.975.975 0 0 0 .175.353z"/><path id="gp6ob" d="M256 1799.22a6.985 6.985 0 0 1 6.284-6.966l5.2-.54 9.836 9.023a1 1 0 0 0 1.595-.343l.1-.228a2.992 2.992 0 0 0 1.66 2.513l-2.368 6.321H258a2 2 0 0 1-2-2zm30-15.22c1.74.003 3.457-.405 5.009-1.193a8.972 8.972 0 0 0 1.884 5.33l-6.423 4.015c-.028.018-.043.05-.07.071a.975.975 0 0 0-.2.2c-.018.024-.047.038-.062.063l-1.504 2.514h-1.268l-1.509-2.515c-.015-.025-.044-.04-.062-.063a.952.952 0 0 0-.2-.2c-.027-.021-.042-.053-.07-.07l-6.423-4.015a8.974 8.974 0 0 0 1.884-5.331A11.023 11.023 0 0 0 282 1784zm-12.972-10.18a3.577 3.577 0 0 0-.121-.372.962.962 0 0 0-.093-.114.934.934 0 0 0-.155-.177.971.971 0 0 0-.11-.059.967.967 0 0 0-.237-.116c-.007 0-.013-.008-.02-.01-1.112-.29-2.332-2.891-2.332-4.972a1.874 1.874 0 0 1 .506-1.525 6.711 6.711 0 0 0 .637 2.966 1.001 1.001 0 1 0 1.8-.879c-.222-.46-.742-1.957-.232-2.77.407-.655 1.492-.792 2.329-.792 4.426 0 9.3-4.35 11.527-6.6.865 2.48 2.99 6.675 7.491 6.605.3-.01.826.022.973.273.3.524-.2 2.117-.852 3.22a1 1 0 0 0 1.722 1.016 9.133 9.133 0 0 0 1.19-3.3c.714.256.99.792.99 1.793 0 2.08-1.22 4.683-2.333 4.972-.006 0-.01.007-.018.01a.965.965 0 0 0-.277.134.877.877 0 0 0-.068.037.989.989 0 0 0-.185.21 1.033 1.033 0 0 0-.066.082c-.028.06-.05.122-.066.186a.934.934 0 0 0-.056.19c0 .009-.007.016-.008.025a8.961 8.961 0 0 1-3.495 6.318c-.066.036-.127.08-.183.13a8.995 8.995 0 0 1-5.286 1.7h-4a8.992 8.992 0 0 1-5.286-1.707 1 1 0 0 0-.183-.13 8.961 8.961 0 0 1-3.495-6.318c0-.01-.007-.016-.008-.025zm38.972 25.4v7.78a2 2 0 0 1-2 2h-20.307l-2.37-6.32a2.991 2.991 0 0 0 1.66-2.514l.1.228a1 1 0 0 0 1.595.343l9.836-9.023 5.2.54a6.985 6.985 0 0 1 6.286 6.966zm-29.304 3.78h2.618l2.253 6h-7.124zm11.625-13.4a8.939 8.939 0 0 0 3.603 1.764l-7.563 6.946-2.104-4.916zM281 1798a1 1 0 0 1 1-1h4a1 1 0 0 1 1 1v2a1 1 0 0 1-1 1h-4a1 1 0 0 1-1-1zm-1.267-4.606l-2.104 4.916-7.563-6.946a8.939 8.939 0 0 0 3.603-1.764zM258 1811h52a4 4 0 0 0 4-4v-7.78a8.979 8.979 0 0 0-8.077-8.955l-5.7-.592h-.016l-.925-.1a6.982 6.982 0 0 1-6.282-6.963v-1.116a10.94 10.94 0 0 0 3.87-6.854c2.046-1.088 3.17-4.45 3.17-6.64a3.553 3.553 0 0 0-3.04-3.864V1760a9.01 9.01 0 0 0-9-9h-8a9.05 9.05 0 0 0-3.9.9.91.91 0 0 0-.351 1.334c.242.428.753.624 1.219.467A7.07 7.07 0 0 1 280 1753h8a7.008 7.008 0 0 1 7 7v3.1c-.302-.066-.61-.1-.92-.1h-.179c-4.485 0-5.907-6.7-5.921-6.771a.8.8 0 0 0-.047-.11.972.972 0 0 0-.08-.192.938.938 0 0 0-.12-.153.924.924 0 0 0-.08-.1c-.017-.015-.039-.019-.058-.033a.96.96 0 0 0-.167-.094.956.956 0 0 0-.18-.075 1.061 1.061 0 0 0-.175-.021 1.007 1.007 0 0 0-.21 0h-.062c-.037.014-.074.03-.11.047a.935.935 0 0 0-.191.08.933.933 0 0 0-.158.123.927.927 0 0 0-.1.075c-.06.07-6.311 7.224-11.242 7.224-.676-.01-1.35.079-2 .265V1760a7.861 7.861 0 0 1 .18-1.558 1.02 1.02 0 0 0-.725-1.082.909.909 0 0 0-1.225.64 9.765 9.765 0 0 0-.23 2v4.136a3.553 3.553 0 0 0-3.04 3.864c0 2.19 1.124 5.552 3.17 6.64a10.94 10.94 0 0 0 3.87 6.854v1.116a6.982 6.982 0 0 1-6.284 6.965l-.924.1h-.015l-5.7.592a8.979 8.979 0 0 0-8.077 8.953v7.78a4 4 0 0 0 4 4z"/></defs><g><g transform="translate(-254 -1751)"><g><use fill="#38A89D" xlink:href="#gp6oa"/></g><g><use fill="#38A89D" xlink:href="#gp6ob"/></g></g></g></svg>